<?xml version="1.0" standalone="no"?><!DOCTYPE svg PUBLIC "-//W3C//DTD SVG 1.1//EN" "http://www.w3.org/Graphics/SVG/1.1/DTD/svg11.dtd"><svg t="1660200681498" class="icon" viewBox="0 0 1024 1024" version="1.1" xmlns="http://www.w3.org/2000/svg" p-id="4972" xmlns:xlink="http://www.w3.org/1999/xlink" width="200" height="200"><defs><style type="text/css">@font-face { font-family: feedback-iconfont; src: url("//at.alicdn.com/t/font_1031158_u69w8yhxdu.woff2?t=1630033759944") format("woff2"), url("//at.alicdn.com/t/font_1031158_u69w8yhxdu.woff?t=1630033759944") format("woff"), url("//at.alicdn.com/t/font_1031158_u69w8yhxdu.ttf?t=1630033759944") format("truetype"); }
</style></defs><path d="M840.533333 490.666667l-17.066666-85.333334L554.666667 460.8V170.666667h-85.333334v262.4l-296.533333-192-46.933333 72.533333 324.266666 209.066667L200.533333 849.066667l68.266667 51.2 241.066667-315.733334 179.2 270.933334 72.533333-46.933334-179.2-266.666666z" fill="#CFD8DC" p-id="4973"></path><path d="M512 512m-149.333333 0a149.333333 149.333333 0 1 0 298.666666 0 149.333333 149.333333 0 1 0-298.666666 0Z" fill="#3F51B5" p-id="4974"></path><path d="M512 170.666667m-106.666667 0a106.666667 106.666667 0 1 0 213.333334 0 106.666667 106.666667 0 1 0-213.333334 0Z" fill="#00BCD4" p-id="4975"></path><path d="M832 448m-106.666667 0a106.666667 106.666667 0 1 0 213.333334 0 106.666667 106.666667 0 1 0-213.333334 0Z" fill="#00BCD4" p-id="4976"></path><path d="M149.333333 277.333333m-106.666666 0a106.666667 106.666667 0 1 0 213.333333 0 106.666667 106.666667 0 1 0-213.333333 0Z" fill="#00BCD4" p-id="4977"></path><path d="M234.666667 874.666667m-106.666667 0a106.666667 106.666667 0 1 0 213.333333 0 106.666667 106.666667 0 1 0-213.333333 0Z" fill="#00BCD4" p-id="4978"></path><path d="M725.333333 832m-106.666666 0a106.666667 106.666667 0 1 0 213.333333 0 106.666667 106.666667 0 1 0-213.333333 0Z" fill="#00BCD4" p-id="4979"></path></svg>